<svg width="1328" height="637" viewBox="0 0 1328 637" fill="none" xmlns="http://www.w3.org/2000/svg">
<rect width="1328" height="637" rx="40" fill="black"/>
<path d="M393.434 468H328.98L303.346 386.701H186.158L161.988 468H99L213.258 110.09H276.002L393.434 468ZM284.303 326.398L244.02 193.586L204.225 326.398H284.303Z" fill="white"/>
<path d="M399.102 468V435.92L447.002 368.977C454.814 358.039 460.576 350.275 464.287 345.686C460.381 345.979 455.205 346.174 448.76 346.271L403.789 346.564V312.434H509.258V341.584L460.479 410.139L443.34 432.844C452.715 432.16 458.525 431.818 460.771 431.818H513.066V468H399.102ZM651.787 468H617.949V388.605C617.949 372.688 617.314 362.092 616.045 356.818C614.775 351.545 612.383 347.492 608.867 344.66C605.449 341.828 601.543 340.412 597.148 340.412C591.484 340.412 586.357 342.268 581.768 345.979C577.178 349.592 573.955 354.621 572.1 361.066C570.244 367.512 569.316 379.67 569.316 397.541V468H535.479V312.434H566.826V335.285C572.393 326.496 578.643 319.904 585.576 315.51C592.607 311.115 600.371 308.918 608.867 308.918C618.73 308.918 627.031 311.506 633.77 316.682C640.605 321.76 645.293 328.352 647.832 336.457C650.469 344.465 651.787 356.086 651.787 371.32V468ZM711.26 359.895L680.645 353.156C684.355 337.434 690.459 326.154 698.955 319.318C707.549 312.385 719.854 308.918 735.869 308.918C750.127 308.918 761.016 310.92 768.535 314.924C776.055 318.928 781.426 324.396 784.648 331.33C787.871 338.166 789.482 350.666 789.482 368.83L789.189 416.877C789.189 430.354 789.727 440.412 790.801 447.053C791.875 453.596 793.877 460.578 796.807 468H763.408L759.014 451.008C753.252 457.844 747.051 462.971 740.41 466.389C733.867 469.807 726.885 471.516 719.463 471.516C707.061 471.516 696.904 467.365 688.994 459.064C681.084 450.666 677.129 439.533 677.129 425.666C677.129 416.877 678.74 409.211 681.963 402.668C685.186 396.125 689.727 390.9 695.586 386.994C701.445 383.088 710.82 379.621 723.711 376.594C739.336 372.98 750.225 369.611 756.377 366.486C756.377 357.893 755.742 352.277 754.473 349.641C753.301 346.906 751.055 344.709 747.734 343.049C744.512 341.291 739.922 340.412 733.965 340.412C727.91 340.412 723.125 341.779 719.609 344.514C716.191 347.248 713.408 352.375 711.26 359.895ZM756.377 393.293C752.08 395.051 745.391 397.102 736.309 399.445C725.859 402.18 719.023 405.207 715.801 408.527C712.578 411.848 710.967 416.145 710.967 421.418C710.967 427.375 712.725 432.404 716.24 436.506C719.854 440.51 724.346 442.512 729.717 442.512C734.502 442.512 739.238 440.9 743.926 437.678C748.613 434.357 751.836 430.451 753.594 425.959C755.449 421.467 756.377 413.312 756.377 401.496V393.293ZM906.23 527.18V448.957C901.641 456.184 896.025 461.75 889.385 465.656C882.744 469.562 875.762 471.516 868.438 471.516C854.18 471.516 841.875 464.387 831.523 450.129C821.27 435.871 816.143 415.314 816.143 388.459C816.143 363.068 821.367 343.488 831.816 329.719C842.363 315.852 855.205 308.918 870.342 308.918C878.447 308.918 885.674 311.115 892.021 315.51C898.467 319.904 904.082 326.545 908.867 335.432V312.434H939.922V527.18H906.23ZM907.402 388.312C907.402 372.199 904.717 360.334 899.346 352.717C893.975 345.002 887.285 341.145 879.277 341.145C871.172 341.145 864.385 345.1 858.916 353.01C853.447 360.822 850.713 373.42 850.713 390.803C850.713 407.893 853.35 420.197 858.623 427.717C863.994 435.236 870.488 438.996 878.105 438.996C885.82 438.996 892.607 434.797 898.467 426.398C904.424 418 907.402 405.305 907.402 388.312ZM1052.28 468H1018.58V312.873C1005.99 327.033 991.436 337.434 974.932 344.074V306.721C984.307 302.912 994.023 296.125 1004.08 286.359C1014.14 276.496 1021.12 265.168 1025.03 252.375H1052.28V468ZM1131.82 352.131C1123.52 347.834 1117.27 341.975 1113.07 334.553C1108.87 327.131 1106.77 318.195 1106.77 307.746C1106.77 290.852 1111.55 277.424 1121.12 267.463C1130.69 257.404 1143.58 252.375 1159.79 252.375C1176.98 252.375 1190.07 257.746 1199.05 268.488C1208.04 279.133 1212.53 292.121 1212.53 307.453C1212.53 317.902 1210.33 326.984 1205.94 334.699C1201.64 342.316 1195.73 348.127 1188.21 352.131C1198.27 357.014 1205.79 363.898 1210.77 372.785C1215.75 381.574 1218.24 392.414 1218.24 405.305C1218.24 418.586 1215.75 430.305 1210.77 440.461C1205.89 450.617 1199.1 458.381 1190.41 463.752C1181.72 469.123 1171.95 471.809 1161.11 471.809C1144.12 471.809 1130.06 465.949 1118.93 454.23C1107.89 442.414 1102.37 426.545 1102.37 406.623C1102.37 393.732 1104.91 382.648 1109.99 373.371C1115.07 364.094 1122.34 357.014 1131.82 352.131ZM1138.7 310.676C1138.7 319.074 1140.65 325.52 1144.56 330.012C1148.56 334.504 1153.59 336.75 1159.65 336.75C1165.8 336.75 1170.88 334.504 1174.88 330.012C1178.89 325.52 1180.89 319.074 1180.89 310.676C1180.89 302.57 1178.89 296.271 1174.88 291.779C1170.98 287.287 1166.04 285.041 1160.09 285.041C1153.84 285.041 1148.71 287.336 1144.71 291.926C1140.7 296.418 1138.7 302.668 1138.7 310.676ZM1135.62 402.668C1135.62 414.191 1138.07 423.078 1142.95 429.328C1147.83 435.578 1153.69 438.703 1160.53 438.703C1167.36 438.703 1173.08 435.725 1177.67 429.768C1182.35 423.811 1184.7 414.875 1184.7 402.961C1184.7 392.707 1182.3 384.602 1177.52 378.645C1172.83 372.688 1167.02 369.709 1160.09 369.709C1153.25 369.709 1147.44 372.736 1142.66 378.791C1137.97 384.748 1135.62 392.707 1135.62 402.668Z" fill="white"/>
</svg>
