<svg width="1080" height="1080" viewBox="0 0 1080 1080" fill="none" xmlns="http://www.w3.org/2000/svg">
<g clip-path="url(#clip0)">
<rect width="1080" height="1080" rx="100" fill="black"/>
<path d="M668.867 902H539.961L488.691 739.402H254.316L205.977 902H80L308.516 186.18H434.004L668.867 902ZM450.605 618.797L370.039 353.172L290.449 618.797H450.605Z" fill="white"/>
<path d="M682.938 902V816.453L810.672 637.938C831.505 608.771 846.87 588.068 856.766 575.828C846.349 576.609 832.547 577.13 815.359 577.391L695.438 578.172V487.156H976.688V564.891L846.609 747.703L800.906 808.25C825.906 806.427 841.401 805.516 847.391 805.516H986.844V902H682.938Z" fill="white"/>
</g>
<defs>
<clipPath id="clip0">
<rect width="1080" height="1080" rx="100" fill="white"/>
</clipPath>
</defs>
</svg>
