<svg width="20" height="20" viewBox="0 0 20 20" fill="none" xmlns="http://www.w3.org/2000/svg">
<path d="M11.4286 0C11.0497 0 10.6864 0.15051 10.4185 0.418419C10.1506 0.686328 10 1.04969 10 1.42857C10 1.80745 10.1506 2.17081 10.4185 2.43872C10.6864 2.70663 11.0497 2.85714 11.4286 2.85714H15.1229L6.1329 11.8471C5.99646 11.9789 5.88763 12.1366 5.81276 12.3109C5.73789 12.4851 5.69848 12.6726 5.69683 12.8623C5.69518 13.052 5.73133 13.2401 5.80316 13.4156C5.87499 13.5912 5.98106 13.7507 6.1152 13.8848C6.24933 14.019 6.40883 14.1251 6.5844 14.1969C6.75996 14.2687 6.94808 14.3049 7.13776 14.3032C7.32745 14.3016 7.5149 14.2622 7.6892 14.1873C7.86349 14.1124 8.02112 14.0036 8.1529 13.8671L17.1429 4.87714V8.57143C17.1429 8.95031 17.2934 9.31367 17.5613 9.58158C17.8292 9.84949 18.1926 10 18.5715 10C18.9504 10 19.3137 9.84949 19.5816 9.58158C19.8495 9.31367 20 8.95031 20 8.57143V1.42857C20 1.04969 19.8495 0.686328 19.5816 0.418419C19.3137 0.15051 18.9504 0 18.5715 0H11.4286Z" fill="#7C00FF"/>
<path d="M2.85714 2.85718C2.09938 2.85718 1.37266 3.1582 0.836838 3.69402C0.301019 4.22983 0 4.95656 0 5.71432V17.1429C0 17.9007 0.301019 18.6274 0.836838 19.1632C1.37266 19.699 2.09938 20 2.85714 20H14.2857C15.0435 20 15.7702 19.699 16.306 19.1632C16.8418 18.6274 17.1429 17.9007 17.1429 17.1429V12.8572C17.1429 12.4783 16.9923 12.1149 16.7244 11.847C16.4565 11.5791 16.0932 11.4286 15.7143 11.4286C15.3354 11.4286 14.972 11.5791 14.7041 11.847C14.4362 12.1149 14.2857 12.4783 14.2857 12.8572V17.1429H2.85714V5.71432H7.14286C7.52174 5.71432 7.8851 5.56381 8.15301 5.2959C8.42092 5.02799 8.57143 4.66463 8.57143 4.28575C8.57143 3.90687 8.42092 3.54351 8.15301 3.2756C7.8851 3.00769 7.52174 2.85718 7.14286 2.85718H2.85714Z" fill="#7C00FF"/>
</svg>
