<svg width="20" height="20" viewBox="0 0 20 20" fill="none" xmlns="http://www.w3.org/2000/svg">
<path d="M2.37186 4.08077C2.38402 3.92829 2.36743 3.77435 2.32345 3.63147C2.27947 3.48859 2.20934 3.3608 2.11875 3.2585L0.252057 0.42508V0H6.05041L10.5326 12.3804L14.4727 0H20V0.423751L18.4022 2.35122C18.3354 2.41682 18.2837 2.50378 18.2525 2.60306C18.2214 2.70235 18.2119 2.81032 18.2251 2.91578V17.0842C18.2116 17.1897 18.221 17.2978 18.2522 17.3971C18.2834 17.4964 18.3352 17.5834 18.4022 17.6488L19.962 19.5763V20H12.1198V19.5763L13.7323 17.601C13.8926 17.4017 13.8926 17.3419 13.8926 17.0377V5.58449L9.40097 19.9535H8.79456L3.5657 5.58449V15.2139C3.52246 15.619 3.62898 16.0268 3.85573 16.3204L5.95655 19.5311V19.9548H0V19.5311L2.10082 16.3204C2.21134 16.1753 2.29341 15.9997 2.34047 15.8076C2.38753 15.6155 2.39828 15.4122 2.37186 15.2139V4.08077Z" fill="white"/>
</svg>
